<?xml version="1.0" encoding="UTF-8"?>
<svg width="128" height="128" viewBox="0 0 128 128" xmlns="http://www.w3.org/2000/svg">
    <defs>
        <linearGradient id="grad" x1="0%" y1="0%" x2="100%" y2="100%">
            <stop offset="0%" style="stop-color:#6366f1;stop-opacity:1" />
            <stop offset="100%" style="stop-color:#4f46e5;stop-opacity:1" />
        </linearGradient>
    </defs>
    <rect x="0" y="0" width="128" height="128" rx="24" fill="url(#grad)"/>
    <g transform="translate(32, 32)" fill="white">
        <!-- Key shape -->
        <path d="M32,0C18.745,0,8,10.745,8,24c0,13.255,10.745,24,24,24s24-10.745,24-24C56,10.745,45.255,0,32,0z M32,42
            c-9.941,0-18-8.059-18-18s8.059-18,18-18s18,8.059,18,18S41.941,42,32,42z"/>
        <!-- Lock shape -->
        <path d="M32,20c-2.209,0-4,1.791-4,4v8c0,2.209,1.791,4,4,4s4-1.791,4-4v-8C36,21.791,34.209,20,32,20z"/>
    </g>
</svg>
